<svg width="21" height="20" viewBox="0 0 21 20" fill="none" xmlns="http://www.w3.org/2000/svg">
<path d="M19 13.125H18.375V5.625C18.375 5.12772 18.1775 4.65081 17.8258 4.29917C17.4742 3.94754 16.9973 3.75 16.5 3.75H5.25C4.75272 3.75 4.27581 3.94754 3.92417 4.29917C3.57254 4.65081 3.375 5.12772 3.375 5.625V13.125H2.75C2.58424 13.125 2.42527 13.1908 2.30806 13.3081C2.19085 13.4253 2.125 13.5842 2.125 13.75V15C2.125 15.4973 2.32254 15.9742 2.67417 16.3258C3.02581 16.6775 3.50272 16.875 4 16.875H17.75C18.2473 16.875 18.7242 16.6775 19.0758 16.3258C19.4275 15.9742 19.625 15.4973 19.625 15V13.75C19.625 13.5842 19.5592 13.4253 19.4419 13.3081C19.3247 13.1908 19.1658 13.125 19 13.125ZM4.625 5.625C4.625 5.45924 4.69085 5.30027 4.80806 5.18306C4.92527 5.06585 5.08424 5 5.25 5H16.5C16.6658 5 16.8247 5.06585 16.9419 5.18306C17.0592 5.30027 17.125 5.45924 17.125 5.625V13.125H4.625V5.625ZM18.375 15C18.375 15.1658 18.3092 15.3247 18.1919 15.4419C18.0747 15.5592 17.9158 15.625 17.75 15.625H4C3.83424 15.625 3.67527 15.5592 3.55806 15.4419C3.44085 15.3247 3.375 15.1658 3.375 15V14.375H18.375V15ZM12.75 6.875C12.75 7.04076 12.6842 7.19973 12.5669 7.31694C12.4497 7.43415 12.2908 7.5 12.125 7.5H9.625C9.45924 7.5 9.30027 7.43415 9.18306 7.31694C9.06585 7.19973 9 7.04076 9 6.875C9 6.70924 9.06585 6.55027 9.18306 6.43306C9.30027 6.31585 9.45924 6.25 9.625 6.25H12.125C12.2908 6.25 12.4497 6.31585 12.5669 6.43306C12.6842 6.55027 12.75 6.70924 12.75 6.875Z" fill="#9C9C9C"/>
</svg>
