<svg width="19" height="18" viewBox="0 0 19 18" fill="none" xmlns="http://www.w3.org/2000/svg">
<path d="M8.125 5.25C8.125 5.00277 8.19831 4.7611 8.33566 4.55554C8.47301 4.34998 8.66824 4.18976 8.89665 4.09515C9.12505 4.00054 9.37639 3.97579 9.61886 4.02402C9.86134 4.07225 10.0841 4.1913 10.2589 4.36612C10.4337 4.54093 10.5528 4.76366 10.601 5.00614C10.6492 5.24861 10.6245 5.49995 10.5299 5.72835C10.4352 5.95676 10.275 6.15199 10.0695 6.28934C9.8639 6.42669 9.62223 6.5 9.375 6.5C9.04348 6.5 8.72554 6.3683 8.49112 6.13388C8.2567 5.89946 8.125 5.58152 8.125 5.25ZM4.375 5.25C4.375 3.92392 4.90178 2.65215 5.83947 1.71447C6.77715 0.776784 8.04892 0.25 9.375 0.25C10.7011 0.25 11.9729 0.776784 12.9105 1.71447C13.8482 2.65215 14.375 3.92392 14.375 5.25C14.375 9.93359 9.87656 12.5578 9.6875 12.668C9.59305 12.722 9.48614 12.7504 9.37734 12.7504C9.26855 12.7504 9.16164 12.722 9.06719 12.668C8.87344 12.5578 4.375 9.9375 4.375 5.25ZM5.625 5.25C5.625 8.54688 8.425 10.7352 9.375 11.3828C10.3242 10.7359 13.125 8.54688 13.125 5.25C13.125 4.25544 12.7299 3.30161 12.0267 2.59835C11.3234 1.89509 10.3696 1.5 9.375 1.5C8.38044 1.5 7.42661 1.89509 6.72335 2.59835C6.02009 3.30161 5.625 4.25544 5.625 5.25ZM15.2164 10.5336C15.0626 10.4828 14.895 10.4937 14.7491 10.564C14.6031 10.6343 14.4902 10.7585 14.4341 10.9105C14.3779 11.0625 14.383 11.2303 14.4482 11.3786C14.5134 11.5269 14.6337 11.6441 14.7836 11.7055C16.0734 12.1828 16.875 12.8219 16.875 13.375C16.875 14.4187 14.0219 15.875 9.375 15.875C4.72813 15.875 1.875 14.4187 1.875 13.375C1.875 12.8219 2.67656 12.1828 3.96641 11.7063C4.11634 11.6449 4.23658 11.5277 4.30179 11.3794C4.36699 11.2311 4.37207 11.0633 4.31594 10.9113C4.25981 10.7593 4.14687 10.6351 4.00092 10.5648C3.85497 10.4945 3.68742 10.4836 3.53359 10.5344C1.65781 11.2258 0.625 12.2352 0.625 13.375C0.625 15.8109 5.13359 17.125 9.375 17.125C13.6164 17.125 18.125 15.8109 18.125 13.375C18.125 12.2352 17.0922 11.2258 15.2164 10.5336Z" fill="#01C265"/>
</svg>
