<svg width="21" height="21" viewBox="0 0 21 21" fill="none" xmlns="http://www.w3.org/2000/svg">
<path d="M21 10.5C21 10.7321 20.9078 10.9546 20.7437 11.1187C20.5796 11.2828 20.3571 11.375 20.125 11.375H11.375V20.125C11.375 20.3571 11.2828 20.5796 11.1187 20.7437C10.9546 20.9078 10.7321 21 10.5 21C10.2679 21 10.0454 20.9078 9.88128 20.7437C9.71719 20.5796 9.625 20.3571 9.625 20.125V11.375H0.875C0.642936 11.375 0.420376 11.2828 0.256282 11.1187C0.0921874 10.9546 0 10.7321 0 10.5C0 10.2679 0.0921874 10.0454 0.256282 9.88128C0.420376 9.71719 0.642936 9.625 0.875 9.625H9.625V0.875C9.625 0.642936 9.71719 0.420376 9.88128 0.256282C10.0454 0.0921874 10.2679 0 10.5 0C10.7321 0 10.9546 0.0921874 11.1187 0.256282C11.2828 0.420376 11.375 0.642936 11.375 0.875V9.625H20.125C20.3571 9.625 20.5796 9.71719 20.7437 9.88128C20.9078 10.0454 21 10.2679 21 10.5Z" fill="white"/>
</svg>
