<svg width="17" height="18" viewBox="0 0 17 18" fill="none" xmlns="http://www.w3.org/2000/svg">
<path d="M8.625 0.875C7.01803 0.875 5.44714 1.35152 4.111 2.24431C2.77485 3.1371 1.73344 4.40605 1.11848 5.8907C0.50352 7.37535 0.342618 9.00901 0.656123 10.5851C0.969628 12.1612 1.74346 13.6089 2.87976 14.7452C4.01606 15.8815 5.4638 16.6554 7.0399 16.9689C8.61599 17.2824 10.2497 17.1215 11.7343 16.5065C13.219 15.8916 14.4879 14.8502 15.3807 13.514C16.2735 12.1779 16.75 10.607 16.75 9C16.7477 6.84581 15.891 4.78051 14.3677 3.25727C12.8445 1.73403 10.7792 0.877275 8.625 0.875ZM4.4125 14.4297C4.86464 13.7226 5.48751 13.1406 6.22369 12.7375C6.95988 12.3345 7.78569 12.1232 8.625 12.1232C9.46432 12.1232 10.2901 12.3345 11.0263 12.7375C11.7625 13.1406 12.3854 13.7226 12.8375 14.4297C11.6331 15.3664 10.1508 15.8749 8.625 15.8749C7.0992 15.8749 5.61693 15.3664 4.4125 14.4297ZM6.125 8.375C6.125 7.88055 6.27163 7.3972 6.54633 6.98607C6.82103 6.57495 7.21148 6.25452 7.66829 6.0653C8.12511 5.87608 8.62778 5.82657 9.11273 5.92304C9.59768 6.0195 10.0431 6.2576 10.3928 6.60723C10.7424 6.95686 10.9805 7.40232 11.077 7.88727C11.1734 8.37223 11.1239 8.87489 10.9347 9.33171C10.7455 9.78852 10.4251 10.179 10.0139 10.4537C9.60281 10.7284 9.11946 10.875 8.625 10.875C7.96196 10.875 7.32608 10.6116 6.85724 10.1428C6.3884 9.67393 6.125 9.03804 6.125 8.375ZM13.7625 13.5633C13.0654 12.5532 12.0853 11.7717 10.9453 11.3172C11.5577 10.8349 12.0045 10.1737 12.2237 9.4257C12.4429 8.67766 12.4235 7.87992 12.1683 7.1434C11.9131 6.40687 11.4347 5.76819 10.7996 5.31616C10.1646 4.86414 9.40449 4.62123 8.625 4.62123C7.84552 4.62123 7.0854 4.86414 6.45036 5.31616C5.81533 5.76819 5.33693 6.40687 5.08171 7.1434C4.82649 7.87992 4.80712 8.67766 5.02631 9.4257C5.24549 10.1737 5.69234 10.8349 6.30469 11.3172C5.1647 11.7717 4.18456 12.5532 3.4875 13.5633C2.6067 12.5728 2.031 11.3488 1.82973 10.0387C1.62846 8.72856 1.8102 7.3882 2.35306 6.17898C2.89593 4.96977 3.77678 3.94326 4.88954 3.22308C6.0023 2.50289 7.29952 2.11972 8.625 2.11972C9.95049 2.11972 11.2477 2.50289 12.3605 3.22308C13.4732 3.94326 14.3541 4.96977 14.8969 6.17898C15.4398 7.3882 15.6216 8.72856 15.4203 10.0387C15.219 11.3488 14.6433 12.5728 13.7625 13.5633Z" fill="#9C9C9C"/>
</svg>
