<svg width="21" height="20" viewBox="0 0 21 20" fill="none" xmlns="http://www.w3.org/2000/svg">
<path d="M18.25 8.125C18.4158 8.125 18.5747 8.05915 18.6919 7.94194C18.8092 7.82473 18.875 7.66576 18.875 7.5V5C18.875 4.66848 18.7433 4.35054 18.5089 4.11612C18.2745 3.8817 17.9565 3.75 17.625 3.75H2.625C2.29348 3.75 1.97554 3.8817 1.74112 4.11612C1.5067 4.35054 1.375 4.66848 1.375 5V7.5C1.375 7.66576 1.44085 7.82473 1.55806 7.94194C1.67527 8.05915 1.83424 8.125 2 8.125C2.49728 8.125 2.97419 8.32254 3.32583 8.67417C3.67746 9.02581 3.875 9.50272 3.875 10C3.875 10.4973 3.67746 10.9742 3.32583 11.3258C2.97419 11.6775 2.49728 11.875 2 11.875C1.83424 11.875 1.67527 11.9408 1.55806 12.0581C1.44085 12.1753 1.375 12.3342 1.375 12.5V15C1.375 15.3315 1.5067 15.6495 1.74112 15.8839C1.97554 16.1183 2.29348 16.25 2.625 16.25H17.625C17.9565 16.25 18.2745 16.1183 18.5089 15.8839C18.7433 15.6495 18.875 15.3315 18.875 15V12.5C18.875 12.3342 18.8092 12.1753 18.6919 12.0581C18.5747 11.9408 18.4158 11.875 18.25 11.875C17.7527 11.875 17.2758 11.6775 16.9242 11.3258C16.5725 10.9742 16.375 10.4973 16.375 10C16.375 9.50272 16.5725 9.02581 16.9242 8.67417C17.2758 8.32254 17.7527 8.125 18.25 8.125ZM2.625 13.0625C3.33143 12.9191 3.96655 12.5358 4.42274 11.9777C4.87893 11.4195 5.12813 10.7208 5.12813 10C5.12813 9.27915 4.87893 8.58047 4.42274 8.02234C3.96655 7.46421 3.33143 7.08095 2.625 6.9375V5H7V15H2.625V13.0625ZM17.625 13.0625V15H8.25V5H17.625V6.9375C16.9186 7.08095 16.2835 7.46421 15.8273 8.02234C15.3711 8.58047 15.1219 9.27915 15.1219 10C15.1219 10.7208 15.3711 11.4195 15.8273 11.9777C16.2835 12.5358 16.9186 12.9191 17.625 13.0625Z" fill="#9C9C9C"/>
</svg>
