<svg width="18" height="18" viewBox="0 0 18 18" fill="none" xmlns="http://www.w3.org/2000/svg">
<path d="M16.9438 16.0595L13.0321 12.1485C14.1659 10.7874 14.7312 9.04148 14.6106 7.27409C14.4899 5.5067 13.6925 3.85387 12.3843 2.65943C11.076 1.46499 9.35762 0.820904 7.58657 0.861154C5.81553 0.901404 4.12818 1.62289 2.87554 2.87554C1.62289 4.12818 0.901404 5.81553 0.861154 7.58657C0.820904 9.35762 1.46499 11.076 2.65943 12.3843C3.85387 13.6925 5.5067 14.4899 7.27409 14.6106C9.04148 14.7312 10.7874 14.1659 12.1485 13.0321L16.0595 16.9438C16.1175 17.0019 16.1865 17.048 16.2623 17.0794C16.3382 17.1108 16.4195 17.127 16.5016 17.127C16.5838 17.127 16.6651 17.1108 16.741 17.0794C16.8168 17.048 16.8858 17.0019 16.9438 16.9438C17.0019 16.8858 17.048 16.8168 17.0794 16.741C17.1108 16.6651 17.127 16.5838 17.127 16.5016C17.127 16.4195 17.1108 16.3382 17.0794 16.2623C17.048 16.1865 17.0019 16.1175 16.9438 16.0595ZM2.12664 7.75164C2.12664 6.63912 2.45654 5.55159 3.07463 4.62656C3.69271 3.70153 4.57121 2.98056 5.59905 2.55482C6.62688 2.12908 7.75788 2.01768 8.84903 2.23473C9.94017 2.45177 10.9424 2.9875 11.7291 3.77417C12.5158 4.56084 13.0515 5.56312 13.2686 6.65426C13.4856 7.7454 13.3742 8.8764 12.9485 9.90424C12.5227 10.9321 11.8018 11.8106 10.8767 12.4287C9.9517 13.0467 8.86416 13.3766 7.75164 13.3766C6.26031 13.375 4.83053 12.7818 3.77599 11.7273C2.72146 10.6728 2.1283 9.24298 2.12664 7.75164Z" fill="#616161"/>
</svg>
